<svg xmlns="http://www.w3.org/2000/svg" xmlns:xlink="http://www.w3.org/1999/xlink" width="100" zoomAndPan="magnify" viewBox="0 0 75 74.999997" height="100" preserveAspectRatio="xMidYMid meet" version="1.0"><defs><clipPath id="e0d002449d"><path d="M 15.242188 12.703125 L 59.492188 12.703125 L 59.492188 62.203125 L 15.242188 62.203125 Z M 15.242188 12.703125 " clip-rule="nonzero"/></clipPath></defs><g clip-path="url(#e0d002449d)"><path fill="#628474" d="M 59.746094 30.796875 L 59.746094 35.054688 C 59.746094 37.011719 58.164062 38.605469 56.214844 38.605469 C 54.265625 38.605469 52.683594 37.011719 52.683594 35.054688 L 52.683594 31.953125 C 52.679688 31.917969 52.664062 31.890625 52.664062 31.855469 C 52.664062 23.25 45.847656 16.25 37.472656 16.25 C 29.289062 16.25 22.617188 22.933594 22.3125 31.265625 L 22.3125 35.765625 C 22.3125 38.113281 24.214844 40.023438 26.550781 40.023438 C 27.332031 40.023438 27.964844 40.660156 27.964844 41.445312 C 27.964844 42.226562 27.332031 42.863281 26.550781 42.863281 C 23.574219 42.863281 21.035156 40.996094 19.996094 38.375 C 19.617188 38.515625 19.210938 38.605469 18.78125 38.605469 C 16.832031 38.605469 15.25 37.011719 15.25 35.058594 L 15.25 30.796875 C 15.25 28.84375 16.832031 27.25 18.78125 27.25 C 18.960938 27.25 19.132812 27.277344 19.308594 27.304688 C 21.3125 18.9375 28.683594 12.703125 37.472656 12.703125 C 46.261719 12.703125 53.636719 18.9375 55.640625 27.308594 C 55.828125 27.277344 56.015625 27.25 56.214844 27.25 C 58.164062 27.25 59.746094 28.84375 59.746094 30.796875 Z M 49.121094 31.855469 C 49.121094 25.390625 43.90625 20.152344 37.472656 20.152344 C 31.039062 20.152344 25.824219 25.390625 25.824219 31.855469 C 25.824219 38.316406 31.039062 43.554688 37.472656 43.554688 C 43.90625 43.554688 49.121094 38.316406 49.121094 31.855469 Z M 49.066406 47.101562 L 44.921875 47.101562 C 44 47.101562 43.132812 47.554688 42.605469 48.316406 L 39.707031 52.484375 C 38.570312 54.117188 36.164062 54.097656 35.050781 52.453125 L 32.277344 48.347656 C 31.75 47.570312 30.875 47.101562 29.9375 47.101562 L 25.867188 47.101562 C 20.621094 47.101562 16.371094 51.375 16.371094 56.644531 L 16.371094 60.875 C 16.371094 61.660156 17 62.296875 17.78125 62.296875 L 57.152344 62.296875 C 57.933594 62.296875 58.566406 61.660156 58.566406 60.875 L 58.566406 56.644531 C 58.566406 51.375 54.3125 47.101562 49.066406 47.101562 Z M 49.066406 47.101562 " fill-opacity="1" fill-rule="nonzero"/></g></svg>