<svg xmlns="http://www.w3.org/2000/svg" xmlns:xlink="http://www.w3.org/1999/xlink" width="100" zoomAndPan="magnify" viewBox="0 0 75 74.999997" height="100" preserveAspectRatio="xMidYMid meet" version="1.0"><defs><clipPath id="7dd2bb9f8e"><path d="M 58 50 L 71 50 L 71 61.5 L 58 61.5 Z M 58 50 " clip-rule="nonzero"/></clipPath><clipPath id="24cedefedd"><path d="M 23 50 L 36 50 L 36 61.5 L 23 61.5 Z M 23 50 " clip-rule="nonzero"/></clipPath></defs><path fill="#628474" d="M 61.535156 42.667969 L 56.035156 42.667969 L 56.035156 37.019531 L 58.375 37.019531 C 59.019531 37.320312 60.074219 39.203125 61.535156 42.667969 Z M 53.617188 54.78125 C 53.617188 54.742188 53.617188 54.707031 53.617188 54.671875 C 53.617188 54.707031 53.617188 54.742188 53.617188 54.78125 Z M 53.59375 55.011719 C 53.589844 55.027344 53.585938 55.046875 53.582031 55.066406 M 51.386719 26.425781 L 43.832031 26.714844 C 42.246094 29.480469 39.859375 32.566406 36.671875 35.980469 L 36.640625 36.015625 L 36.605469 35.980469 C 33.621094 32.785156 31.339844 29.875 29.761719 27.25 L 20.640625 27.597656 C 19.347656 27.726562 18.476562 28.28125 18.449219 29.679688 L 18.089844 54.671875 C 18.089844 55.898438 19.09375 56.902344 20.320312 56.902344 L 22.585938 56.902344 C 22.511719 56.492188 22.476562 56.070312 22.476562 55.636719 C 22.476562 51.738281 25.636719 48.578125 29.535156 48.578125 C 33.4375 48.578125 36.597656 51.738281 36.597656 55.636719 C 36.597656 56.070312 36.558594 56.492188 36.484375 56.902344 L 51.386719 56.902344 C 52.480469 56.902344 53.394531 56.105469 53.582031 55.066406 C 53.574219 55.109375 53.566406 55.148438 53.554688 55.191406 L 57.410156 55.191406 C 57.539062 51.328125 60.714844 48.265625 64.582031 48.277344 C 68.445312 48.285156 71.605469 51.363281 71.714844 55.230469 C 73.65625 55.300781 74.59375 55.300781 74.53125 55.230469 C 75 47.644531 71.621094 43.457031 64.394531 42.667969 C 63.867188 39.859375 62.878906 37.582031 61.421875 35.828125 C 60.808594 35.226562 60.1875 34.890625 59.5625 34.824219 L 53.617188 34.824219 L 53.617188 28.65625 C 53.617188 27.429688 52.613281 26.378906 51.386719 26.425781 Z M 53.59375 55.007812 C 53.59375 54.992188 53.597656 54.972656 53.601562 54.957031 C 53.597656 54.972656 53.59375 54.992188 53.59375 55.007812 Z M 53.601562 54.953125 C 53.605469 54.898438 53.613281 54.84375 53.613281 54.789062 C 53.613281 54.84375 53.605469 54.898438 53.601562 54.953125 Z M 53.601562 54.953125 " fill-opacity="1" fill-rule="evenodd"/><g clip-path="url(#7dd2bb9f8e)"><path fill="#628474" d="M 70.082031 55.636719 C 70.082031 52.558594 67.585938 50.0625 64.507812 50.0625 C 61.429688 50.0625 58.933594 52.558594 58.933594 55.636719 C 58.933594 58.714844 61.429688 61.210938 64.507812 61.210938 C 67.585938 61.210938 70.082031 58.714844 70.082031 55.636719 Z M 64.507812 53.109375 C 65.902344 53.109375 67.035156 54.242188 67.035156 55.636719 C 67.035156 57.035156 65.902344 58.164062 64.507812 58.164062 C 63.109375 58.164062 61.980469 57.035156 61.980469 55.636719 C 61.980469 54.242188 63.109375 53.109375 64.507812 53.109375 Z M 64.507812 53.109375 " fill-opacity="1" fill-rule="evenodd"/></g><g clip-path="url(#24cedefedd)"><path fill="#628474" d="M 29.535156 61.210938 C 32.613281 61.210938 35.109375 58.714844 35.109375 55.636719 C 35.109375 52.558594 32.613281 50.0625 29.535156 50.0625 C 26.457031 50.0625 23.960938 52.558594 23.960938 55.636719 C 23.960938 58.714844 26.457031 61.210938 29.535156 61.210938 Z M 32.0625 55.636719 C 32.0625 57.035156 30.933594 58.164062 29.535156 58.164062 C 28.140625 58.164062 27.007812 57.035156 27.007812 55.636719 C 27.007812 54.242188 28.140625 53.109375 29.535156 53.109375 C 30.933594 53.109375 32.0625 54.242188 32.0625 55.636719 Z M 32.0625 55.636719 " fill-opacity="1" fill-rule="evenodd"/></g><path fill="#628474" d="M 64.507812 54.246094 C 65.273438 54.246094 65.898438 54.871094 65.898438 55.636719 C 65.898438 56.40625 65.273438 57.027344 64.507812 57.027344 C 63.738281 57.027344 63.117188 56.40625 63.117188 55.636719 C 63.117188 54.871094 63.738281 54.246094 64.507812 54.246094 Z M 64.507812 54.246094 " fill-opacity="1" fill-rule="evenodd"/><path fill="#628474" d="M 29.535156 54.246094 C 30.304688 54.246094 30.925781 54.871094 30.925781 55.636719 C 30.925781 56.40625 30.304688 57.027344 29.535156 57.027344 C 28.769531 57.027344 28.144531 56.40625 28.144531 55.636719 C 28.144531 54.871094 28.769531 54.246094 29.535156 54.246094 Z M 29.535156 54.246094 " fill-opacity="1" fill-rule="evenodd"/><path fill="#628474" d="M 28.464844 20.390625 C 28.703125 23.941406 31.421875 28.496094 36.613281 34.050781 L 36.640625 34.082031 L 36.667969 34.050781 C 41.859375 28.496094 44.574219 23.941406 44.816406 20.390625 C 45.726562 7.503906 27.550781 7.503906 28.464844 20.390625 Z M 36.742188 23.746094 C 34.394531 23.746094 32.492188 21.839844 32.492188 19.492188 C 32.492188 17.144531 34.394531 15.242188 36.742188 15.242188 C 39.089844 15.242188 40.992188 17.144531 40.992188 19.492188 C 40.992188 21.839844 39.089844 23.746094 36.742188 23.746094 Z M 36.742188 23.746094 " fill-opacity="1" fill-rule="evenodd"/><path fill="#628474" d="M 1.25 39.980469 L 12.582031 39.980469 C 13.269531 39.980469 13.832031 40.542969 13.832031 41.230469 C 13.832031 41.917969 13.269531 42.480469 12.582031 42.480469 L 1.25 42.480469 C 0.5625 42.480469 0 41.917969 0 41.230469 C 0 40.542969 0.5625 39.980469 1.25 39.980469 Z M 1.25 39.980469 " fill-opacity="1" fill-rule="evenodd"/><path fill="#628474" d="M 5.71875 48.304688 L 14.503906 48.304688 C 15.035156 48.304688 15.46875 48.867188 15.46875 49.554688 C 15.46875 50.242188 15.035156 50.804688 14.503906 50.804688 L 5.71875 50.804688 C 5.1875 50.804688 4.753906 50.242188 4.753906 49.554688 C 4.753906 48.867188 5.1875 48.304688 5.71875 48.304688 Z M 5.71875 48.304688 " fill-opacity="1" fill-rule="evenodd"/><path fill="#628474" d="M 7.605469 43.769531 L 16.386719 43.769531 C 16.917969 43.769531 17.355469 44.332031 17.355469 45.019531 C 17.355469 45.707031 16.917969 46.269531 16.386719 46.269531 L 7.605469 46.269531 C 7.070312 46.269531 6.636719 45.707031 6.636719 45.019531 C 6.636719 44.332031 7.070312 43.769531 7.605469 43.769531 Z M 7.605469 43.769531 " fill-opacity="1" fill-rule="evenodd"/><path fill="#628474" d="M 6.25 35.75 L 15.03125 35.75 C 15.5625 35.75 16 36.3125 16 37 C 16 37.6875 15.5625 38.25 15.03125 38.25 L 6.25 38.25 C 5.71875 38.25 5.28125 37.6875 5.28125 37 C 5.28125 36.3125 5.71875 35.75 6.25 35.75 Z M 6.25 35.75 " fill-opacity="1" fill-rule="evenodd"/></svg>