<svg xmlns="http://www.w3.org/2000/svg" xmlns:xlink="http://www.w3.org/1999/xlink" width="100" zoomAndPan="magnify" viewBox="0 0 75 74.999997" height="100" preserveAspectRatio="xMidYMid meet" version="1.0"><defs><clipPath id="84d668b25a"><path d="M 14.480469 13.222656 L 60.230469 13.222656 L 60.230469 61.757812 L 14.480469 61.757812 Z M 14.480469 13.222656 " clip-rule="nonzero"/></clipPath></defs><g clip-path="url(#84d668b25a)"><path fill="#628474" d="M 27.910156 52.625 C 30 51.207031 32.175781 48.648438 33.945312 46.019531 C 33.328125 49.125 33.042969 52.472656 33.503906 54.953125 C 34.476562 60.15625 37.210938 62.089844 40.636719 61.710938 C 44.042969 61.203125 46.195312 58.640625 45.808594 53.363281 C 45.625 50.832031 44.476562 47.664062 43.078125 44.808594 C 45.464844 46.90625 48.234375 48.839844 50.628906 49.683594 C 55.617188 51.441406 58.65625 50.039062 60.042969 46.886719 C 61.308594 43.679688 60.164062 40.535156 55.398438 38.230469 C 53.117188 37.125 49.796875 36.519531 46.625 36.300781 C 49.636719 35.285156 52.695312 33.867188 54.621094 32.21875 C 58.640625 28.773438 58.945312 25.445312 56.90625 22.664062 C 54.761719 19.964844 51.46875 19.386719 47.089844 22.359375 C 45 23.777344 42.824219 26.335938 41.054688 28.960938 C 41.671875 25.855469 41.957031 22.507812 41.496094 20.027344 C 40.523438 14.824219 37.789062 12.894531 34.363281 13.269531 C 30.953125 13.777344 28.804688 16.339844 29.191406 21.621094 C 29.375 24.152344 30.523438 27.316406 31.921875 30.171875 C 29.535156 28.074219 26.765625 26.140625 24.375 25.300781 C 19.382812 23.539062 16.34375 24.9375 14.957031 28.097656 C 13.691406 31.304688 14.835938 34.445312 19.601562 36.75 C 21.882812 37.855469 25.207031 38.464844 28.375 38.679688 C 25.363281 39.699219 22.304688 41.113281 20.378906 42.761719 C 16.359375 46.207031 16.050781 49.535156 18.09375 52.316406 C 20.238281 55.015625 23.53125 55.597656 27.910156 52.625 " fill-opacity="1" fill-rule="nonzero"/></g><path fill="#d8d5e6" d="M 35.644531 41.945312 C 33.183594 40.917969 32.019531 38.09375 33.042969 35.632812 C 34.070312 33.171875 36.894531 32.011719 39.355469 33.035156 C 41.816406 34.0625 42.980469 36.886719 41.953125 39.347656 C 40.929688 41.808594 38.105469 42.96875 35.644531 41.945312 " fill-opacity="1" fill-rule="nonzero"/></svg>