<svg xmlns="http://www.w3.org/2000/svg" xmlns:xlink="http://www.w3.org/1999/xlink" width="100" zoomAndPan="magnify" viewBox="0 0 75 74.999997" height="100" preserveAspectRatio="xMidYMid meet" version="1.0"><defs><clipPath id="d2c10398d9"><path d="M 15.492188 13.285156 L 59.742188 13.285156 L 59.742188 65.035156 L 15.492188 65.035156 Z M 15.492188 13.285156 " clip-rule="nonzero"/></clipPath></defs><g clip-path="url(#d2c10398d9)"><path fill="#628474" d="M 40.226562 14.550781 L 42.96875 16.605469 C 43.71875 17.164062 44.507812 17.453125 45.441406 17.503906 L 48.859375 17.695312 C 50.910156 17.808594 52.570312 19.203125 53.039062 21.199219 L 53.820312 24.535156 C 54.035156 25.445312 54.453125 26.175781 55.136719 26.816406 L 57.632812 29.160156 C 59.128906 30.5625 59.507812 32.699219 58.582031 34.53125 L 57.035156 37.585938 C 56.613281 38.421875 56.46875 39.25 56.578125 40.179688 L 56.984375 43.582031 C 57.230469 45.617188 56.144531 47.496094 54.257812 48.304688 L 51.109375 49.652344 C 50.25 50.023438 49.605469 50.5625 49.09375 51.34375 L 47.21875 54.210938 C 46.097656 55.929688 44.054688 56.671875 42.09375 56.078125 L 38.816406 55.085938 C 37.917969 54.816406 37.078125 54.816406 36.179688 55.085938 L 32.902344 56.078125 C 30.941406 56.671875 28.898438 55.929688 27.777344 54.210938 L 25.902344 51.34375 C 25.390625 50.5625 24.746094 50.023438 23.886719 49.652344 L 20.738281 48.304688 C 18.851562 47.496094 17.765625 45.617188 18.011719 43.582031 L 18.417969 40.179688 C 18.527344 39.25 18.382812 38.421875 17.960938 37.585938 L 16.414062 34.53125 C 15.488281 32.699219 15.867188 30.5625 17.363281 29.160156 L 19.859375 26.816406 C 20.542969 26.175781 20.960938 25.445312 21.175781 24.535156 L 21.957031 21.199219 C 22.425781 19.203125 24.085938 17.808594 26.136719 17.695312 L 29.554688 17.503906 C 30.488281 17.453125 31.277344 17.164062 32.027344 16.605469 L 34.769531 14.550781 C 36.414062 13.324219 38.582031 13.324219 40.226562 14.550781 Z M 35.75 36.128906 L 32.773438 33.152344 C 32.003906 32.382812 30.75 32.382812 29.980469 33.152344 C 29.210938 33.925781 29.210938 35.175781 29.980469 35.945312 L 34.355469 40.324219 C 35.128906 41.09375 36.378906 41.09375 37.148438 40.324219 C 39.789062 37.683594 42.394531 35.019531 45.019531 32.367188 C 45.785156 31.59375 45.785156 30.347656 45.011719 29.582031 C 44.242188 28.8125 42.992188 28.816406 42.222656 29.589844 Z M 37.5 20.128906 C 33.40625 20.128906 29.699219 21.789062 27.015625 24.472656 C 24.332031 27.152344 22.671875 30.859375 22.671875 34.953125 C 22.671875 39.046875 24.332031 42.753906 27.015625 45.4375 C 29.699219 48.121094 33.402344 49.78125 37.5 49.78125 C 41.589844 49.78125 45.296875 48.121094 47.980469 45.4375 C 50.664062 42.753906 52.324219 39.046875 52.324219 34.953125 C 52.324219 30.859375 50.664062 27.15625 47.980469 24.472656 C 45.296875 21.789062 41.59375 20.128906 37.5 20.128906 Z M 46.800781 25.652344 C 44.417969 23.273438 41.128906 21.800781 37.5 21.800781 C 33.867188 21.800781 30.578125 23.273438 28.199219 25.652344 C 25.816406 28.035156 24.34375 31.320312 24.34375 34.953125 C 24.34375 38.585938 25.816406 41.875 28.199219 44.253906 C 30.578125 46.636719 33.867188 48.109375 37.5 48.109375 C 41.128906 48.109375 44.417969 46.636719 46.800781 44.253906 C 49.179688 41.875 50.652344 38.585938 50.652344 34.953125 C 50.652344 31.320312 49.179688 28.035156 46.800781 25.652344 Z M 43.070312 57.9375 L 46.316406 64.917969 C 46.367188 65.027344 46.46875 65.09375 46.589844 65.097656 C 46.707031 65.105469 46.8125 65.046875 46.875 64.941406 L 49.296875 60.773438 L 54.046875 61.601562 C 54.167969 61.625 54.277344 61.578125 54.351562 61.484375 C 54.425781 61.390625 54.4375 61.269531 54.386719 61.160156 L 50.347656 52.484375 L 48.617188 55.125 C 47.371094 57.035156 45.257812 58.066406 43.070312 57.9375 Z M 32.054688 57.929688 C 29.820312 58.105469 27.648438 57.070312 26.378906 55.125 L 24.71875 52.589844 L 20.730469 61.160156 C 20.679688 61.269531 20.691406 61.390625 20.765625 61.484375 C 20.839844 61.578125 20.949219 61.625 21.070312 61.601562 L 25.820312 60.773438 L 28.246094 64.941406 C 28.304688 65.046875 28.410156 65.105469 28.53125 65.097656 C 28.648438 65.09375 28.75 65.027344 28.800781 64.917969 Z M 32.054688 57.929688 " fill-opacity="1" fill-rule="evenodd"/></g></svg>