<svg xmlns="http://www.w3.org/2000/svg" xmlns:xlink="http://www.w3.org/1999/xlink" width="100" zoomAndPan="magnify" viewBox="0 0 75 74.999997" height="100" preserveAspectRatio="xMidYMid meet" version="1.0"><defs><clipPath id="8229b98a82"><path d="M 15.175781 15.0625 L 59.828125 15.0625 L 59.828125 59.925781 L 15.175781 59.925781 Z M 15.175781 15.0625 " clip-rule="nonzero"/></clipPath></defs><g clip-path="url(#8229b98a82)"><path fill="#628474" d="M 57.832031 23.789062 C 56.804688 24.816406 53.730469 27.054688 50.789062 28.753906 C 47.277344 30.777344 44.757812 31.558594 44.042969 30.847656 C 43.882812 30.683594 43.796875 30.425781 43.789062 30.082031 C 43.84375 30.109375 43.898438 30.136719 43.953125 30.164062 C 44.152344 30.273438 44.34375 30.414062 44.515625 30.585938 C 44.625 30.699219 44.726562 30.816406 44.808594 30.941406 C 45.644531 30.96875 47.175781 30.519531 49.570312 29.242188 L 49.292969 27.410156 C 49.164062 26.585938 48.515625 25.9375 47.691406 25.808594 L 45.558594 25.484375 L 45.390625 25.460938 C 45.617188 25.023438 45.867188 24.574219 46.136719 24.101562 C 47.832031 21.160156 50.074219 18.085938 51.101562 17.058594 C 52 16.15625 53.195312 15.664062 54.46875 15.664062 C 55.738281 15.664062 56.933594 16.15625 57.832031 17.058594 C 59.691406 18.914062 59.691406 21.933594 57.832031 23.789062 Z M 58.257812 16.632812 C 57.246094 15.617188 55.898438 15.0625 54.46875 15.0625 C 53.035156 15.0625 51.6875 15.617188 50.675781 16.632812 C 49.621094 17.6875 47.335938 20.820312 45.617188 23.800781 C 45.300781 24.351562 45.015625 24.871094 44.761719 25.363281 L 44.589844 25.335938 L 36.699219 24.132812 C 36.097656 24.042969 35.488281 24.242188 35.058594 24.671875 L 15.734375 43.996094 C 14.988281 44.742188 14.988281 45.953125 15.734375 46.699219 L 28.402344 59.367188 C 29.148438 60.113281 30.359375 60.113281 31.105469 59.367188 L 50.429688 40.042969 C 50.859375 39.613281 51.058594 39.003906 50.96875 38.402344 L 49.71875 30.210938 C 47.800781 31.210938 46.28125 31.761719 45.1875 31.851562 C 45.339844 32.625 45.117188 33.460938 44.515625 34.0625 C 43.554688 35.023438 41.996094 35.023438 41.039062 34.0625 C 40.078125 33.101562 40.078125 31.546875 41.039062 30.585938 C 41.582031 30.042969 42.316406 29.808594 43.023438 29.878906 C 43.078125 29.882812 43.136719 29.890625 43.191406 29.902344 C 43.171875 30.507812 43.3125 30.964844 43.617188 31.269531 C 43.90625 31.558594 44.328125 31.703125 44.886719 31.703125 C 46.207031 31.703125 48.285156 30.890625 51.089844 29.273438 C 54.070312 27.554688 57.203125 25.269531 58.257812 24.214844 C 60.347656 22.125 60.347656 18.722656 58.257812 16.632812 " fill-opacity="1" fill-rule="nonzero"/></g></svg>