<svg xmlns="http://www.w3.org/2000/svg" xmlns:xlink="http://www.w3.org/1999/xlink" width="1512" zoomAndPan="magnify" viewBox="0 0 1134 341.249999" height="455" preserveAspectRatio="xMidYMid meet" version="1.0"><defs><clipPath id="bbc1e3d3cc"><path d="M 1.242188 0 L 1132.753906 0 L 1132.753906 340.5 L 1.242188 340.5 Z M 1.242188 0 " clip-rule="nonzero"/></clipPath><clipPath id="8c43adcce4"><path d="M 512 48 L 1022 48 L 1022 248 L 512 248 Z M 512 48 " clip-rule="nonzero"/></clipPath><clipPath id="809c79b1f4"><path d="M 510.429688 91.980469 L 1008.460938 48.769531 L 1021.980469 204.589844 L 523.949219 247.800781 Z M 510.429688 91.980469 " clip-rule="nonzero"/></clipPath><clipPath id="bd8ab7ce69"><path d="M 510.429688 91.980469 L 1179.9375 33.890625 L 1193.457031 189.710938 L 523.949219 247.800781 Z M 510.429688 91.980469 " clip-rule="nonzero"/></clipPath><clipPath id="27f5fe266d"><path d="M 1005 0 L 1132.753906 0 L 1132.753906 165 L 1005 165 Z M 1005 0 " clip-rule="nonzero"/></clipPath><clipPath id="73b9b9bb68"><path d="M 999.871094 98.441406 L 1213.785156 -67.78125 L 1265.671875 -1.007812 L 1051.761719 165.214844 Z M 999.871094 98.441406 " clip-rule="nonzero"/></clipPath><clipPath id="7256e6b6ea"><path d="M 999.871094 98.441406 L 1287.058594 -124.722656 L 1338.945312 -57.945312 L 1051.761719 165.214844 Z M 999.871094 98.441406 " clip-rule="nonzero"/></clipPath><clipPath id="2ff851c48e"><path d="M 1.242188 151 L 1132.753906 151 L 1132.753906 340.5 L 1.242188 340.5 Z M 1.242188 151 " clip-rule="nonzero"/></clipPath><clipPath id="f7209baf40"><path d="M -79.015625 137.300781 L 1333.9375 201.105469 L 1319.117188 529.300781 L -93.835938 465.496094 Z M -79.015625 137.300781 " clip-rule="nonzero"/></clipPath><clipPath id="51d5b22df8"><path d="M -79.015625 137.300781 L 1333.9375 201.105469 L 1319.117188 529.300781 L -93.835938 465.496094 Z M -79.015625 137.300781 " clip-rule="nonzero"/></clipPath><clipPath id="3ef7769da8"><path d="M 1.242188 11.289062 L 1132.753906 11.289062 L 1132.753906 306.140625 L 1.242188 306.140625 Z M 1.242188 11.289062 " clip-rule="nonzero"/></clipPath></defs><g clip-path="url(#bbc1e3d3cc)"><path fill="#ffffff" d="M 1.242188 0 L 1132.757812 0 L 1132.757812 340.5 L 1.242188 340.5 Z M 1.242188 0 " fill-opacity="1" fill-rule="nonzero"/><path fill="#ffffff" d="M 1.242188 0 L 1132.757812 0 L 1132.757812 340.5 L 1.242188 340.5 Z M 1.242188 0 " fill-opacity="1" fill-rule="nonzero"/></g><g clip-path="url(#8c43adcce4)"><g clip-path="url(#809c79b1f4)"><g clip-path="url(#bd8ab7ce69)"><path fill="#f4f8f3" d="M 1156.539062 43.765625 C 1109.222656 64.265625 1075.414062 77.226562 1037.859375 89.183594 C 994.480469 103.023438 963.371094 109.859375 926.394531 113.683594 C 886.445312 117.769531 854.792969 117.234375 805.246094 111.503906 C 785.273438 109.199219 762.042969 106.035156 712.609375 98.867188 C 663.5625 91.765625 633.324219 88.351562 614.753906 87.921875 C 581.742188 87.078125 548.785156 92.882812 518.457031 104.878906 L 512.804688 107.078125 L 518.800781 177.28125 L 524.753906 247.535156 L 858.640625 218.5625 L 1192.480469 189.597656 L 1185.730469 111.761719 C 1182.011719 68.929688 1178.933594 33.980469 1178.890625 34.03125 C 1178.800781 34.085938 1168.769531 38.472656 1156.539062 43.765625 Z M 1156.539062 43.765625 " fill-opacity="1" fill-rule="nonzero"/></g></g></g><g clip-path="url(#27f5fe266d)"><g clip-path="url(#73b9b9bb68)"><g clip-path="url(#7256e6b6ea)"><path fill="#f5fff9" d="M 1279.515625 -113.5 C 1264.027344 -90.261719 1252.464844 -74.425781 1238.902344 -57.941406 C 1223.246094 -38.890625 1211.109375 -26.632812 1195.417969 -14.019531 C 1178.449219 -0.410156 1163.898438 8.65625 1139.683594 20.621094 C 1129.921875 25.445312 1118.425781 30.839844 1093.835938 42.117188 C 1069.441406 53.3125 1054.6875 60.652344 1046.113281 65.917969 C 1030.855469 75.246094 1017.574219 87.578125 1007.308594 101.953125 L 1005.386719 104.617188 L 1028.757812 134.777344 L 1052.128906 164.976562 L 1195.449219 53.605469 L 1338.753906 -57.75 L 1312.789062 -91.164062 C 1298.503906 -109.546875 1286.824219 -124.539062 1286.816406 -124.5 C 1286.792969 -124.449219 1283.523438 -119.503906 1279.515625 -113.5 Z M 1279.515625 -113.5 " fill-opacity="1" fill-rule="nonzero"/></g></g></g><g clip-path="url(#2ff851c48e)"><g clip-path="url(#f7209baf40)"><g clip-path="url(#51d5b22df8)"><path fill="#d8d6d9" d="M 1282.804688 215.261719 C 1178.378906 244.976562 1104.234375 262.683594 1022.550781 277.253906 C 928.183594 294.148438 861.371094 299.8125 783.136719 297.578125 C 698.628906 295.058594 632.714844 285.195312 530.894531 259.542969 C 489.847656 249.207031 442.238281 236.179688 341.046875 207.5625 C 240.644531 179.179688 178.476562 163.699219 139.832031 157.660156 C 71.171875 146.777344 0.785156 149.785156 -65.828125 166.4375 L -78.238281 169.46875 L -85.128906 317.640625 L -92.125 465.910156 L 612.738281 497.742188 L 1317.507812 529.566406 L 1324.925781 365.25 C 1329.007812 274.828125 1332.242188 201.03125 1332.136719 201.125 C 1331.933594 201.214844 1309.792969 207.601562 1282.804688 215.261719 Z M 1282.804688 215.261719 " fill-opacity="1" fill-rule="nonzero"/></g></g></g><g clip-path="url(#3ef7769da8)"><path fill="#d8d6d9" d="M 1163.351562 26.050781 C 1070.929688 56.917969 1005.171875 75.796875 932.523438 92.167969 C 848.601562 111.136719 788.925781 118.917969 718.695312 120.082031 C 642.824219 121.246094 583.328125 115.070312 490.996094 96.195312 C 453.777344 88.589844 410.566406 78.835938 318.679688 57.277344 C 227.511719 35.890625 171.148438 24.53125 136.253906 20.683594 C 74.253906 13.703125 11.269531 19.25 -47.78125 36.875 L -58.785156 40.097656 L -58.964844 173.226562 L -59.234375 306.445312 L 1207.191406 306.445312 L 1207.191406 158.820312 C 1207.191406 77.585938 1207.101562 11.289062 1207.011719 11.378906 C 1206.832031 11.46875 1187.238281 18.089844 1163.351562 26.050781 Z M 1163.351562 26.050781 " fill-opacity="1" fill-rule="nonzero"/></g></svg>